<svg xmlns="http://www.w3.org/2000/svg" width="150" height="150" viewBox="0 0 150 150">
  <circle cx="74.768" cy="73.76" r="72.24" fill="#FFF"/>
  <g fill="#9FC2E7">
    <path d="M23.766 21.856c4.556-4.622 21.312-14.147 26.326-15.76s19.34-4.263 26.146-4.19c6.806.072 35.996 5.983 37.07 7.952 1.074 1.97 11.998 6.806 20.953 20.058 8.96 13.252 13.08 48.173 12.72 52.113-.36 3.94-11.28 5.01-13.43 8.05s-5.01 5.01-9.49 6.27-14.86 1.07-16.12 5.73-4.83 2.15-5.73 15.4c-.89 13.25-2.33 20.59-4.83 22.56-2.5 1.97-14.5 4.12-13.61 2.68.9-1.44 3.58-7.35 6.45-12S93.09 118 93.09 118s3.4-14.327 6.27-20.058 6.09-10.927 10.03-10.927c3.94 0-3.4-1.79-3.4-1.79L104 83.46s-1.294-4.296-5.66-4.834c-4.368-.537-4.55.538-4.55.538s3.9 5.192 4.548 7.52c.647 2.33-1.144 1.613-3.65 1.613-2.508 0-8.238-2.508-10.925-1.972-2.688.54-.18-5.175.36-6.348.535-1.174-4.12 1.156-5.554 2.05s-17.02-31.16-17.02-31.16l-2.87-.894-11.1 25.934-6.63 9.166s-6.63 20.95-9.49 21.848c-2.87.9-15.58-2.86-18.63.18-3.04 3.05-7.7-15.58-7.7-15.58l-1.6-13.43s5.91-26.5 7.16-32.23c1.25-5.73 11.55-22.46 13.07-24z"/>
    <path d="M23.05 123.396l5.73-10.745s-4.835-2.32-8.596-2.5-5.73 2.51-5.73 3.41 8.597 9.85 8.597 9.85zm61.784-30.444s7.163-.716 7.88.717c.716 1.43-3.224 6.44-3.224 6.44l-4.656-7.17zm42.622 4.478s-.896 10.028-1.97 10.028-9.67 1.074-10.746 6.268c-1.074 5.193-3.76 22.028-3.76 22.028h-6.09s3.045-14.148 4.12-16.477c1.074-2.327 3.044-17.19 7.163-19.16s11.283-2.686 11.283-2.686z"/>
    <path d="M125.486 110.137l-2.508 17.2-5.91 2.506s4.3-17.746 8.418-19.706zm18.267-18.26v4.567l-4.12.986-4.477 13.608-2.328 7.702H130.5s0-22.207 6.626-24.535l6.627-2.327z"/>
  </g>
  <path d="M147.497 51.818c-2.68-8.71-9.38-23.224-12.282-25.68-2.902-2.456-10.72-10.273-20.098-16.525C105.737 3.36 89.902-.234 80.28.01 53.93.68 37.407 8.05 31.6 12.518c-5.806 4.467-14.962 9.602-23.002 25.68C-.29 55.973-.782 73.704.56 81.742c1.34 8.04 3.126 18.534 10.496 33.05 7.37 14.516 18.758 22.555 35.06 27.913 16.3 5.36 32.38 6.7 44.438 3.796 12.06-2.9 19.43-5.8 31.934-14.51 12.506-8.71 15.408-13.4 16.748-16.52 1.34-3.13 10.72-15.18 11.166-33.49.444-18.31-.225-21.43-2.905-30.15zM7.287 90.298c-.196-.29-1.185-4.124-1.084-5.414.098-1.29 6.218-4.648 8.786-5.142 2.56-.493 5.13-.39 7.22 0 2.92.546 6.89 1.777 8.37 1.974 1.48.2 6.12 5.628 6.12 6.22 0 .593-1.38 3.054-1.68 3.5-.3.448-7.01-4.585-12.24-4.882-5.23-.297-8.34.395-10.79 1.382-2.45.987-4.52 2.65-4.72 2.362zm3.554 7.443c.4-1.31 8.21-3.7 11.75-3.15 1.66.26 4.29.56 6.24 1.54 1.96.99 4.82 2.87 4.82 2.87s-2.17 5.33-2.76 5.33-4.21-2.56-9.06-1.68-8.21 1.29-9 1.68c-.79.4-2.37-5.26-1.97-6.58zm11.26 23.14c-.39-.26-6.61-6.97-5.82-8.65s3.43-3.18 5.33-2.96c1.39.16 5.63 1.29 5.83 1.68.2.4-4.93 10.2-5.33 9.94zm63.77 0c-.69 1.71-.59 4.28-2.17 9.51-1.58 5.24-2.18 9.48-4.25 10.56-2.07 1.09-17.76-.29-22.99-1.47-5.23-1.18-17.96-6.22-20.04-7.4-2.07-1.18-6.71-2.56-7.45-4.14-.74-1.58 1.83-2.76 6.47-12.59 4.03-8.54 8.89-19.7 10.27-23.89 1.38-4.19 7.4-20.91 7.5-22.42.1-1.51 5.14-14.34 6.22-14.44 1.09-.1 2.57 11.55 8 21.52 5.43 9.97 9.97 18.76 11.26 20.83 1.29 2.08 7.73 10.76 7.73 10.76.27.99.18 11.49-.52 13.2zm-3.26-57.81c.5 1.09 2.57 7.9 2.96 9.18.4 1.29 1.29 3.16 1.29 3.86 0 .69-1.87-.59-4.34 0s-3.35 1.48-4.05.79c-.69-.69-5.62-7.15-5.43-7.87.2-.72 2.46-6.55 3.85-6.62.79-.04 5.24-.42 5.73.67zm-4.54-6.31c.1-.79.66-3.78 1.25-3.45.9.51 1.82 2.67 1.42 3.46-.39.79-2.76.79-2.66 0zm10.07 30.4c-3.35.2-5.13 1.19-5.43.4-.29-.78-1.28-3.35-.89-3.94.4-.6 2.08-2.47 6.32-2.47.9 0 2.67.2 4.94 1.87 2.27 1.68 3.26 2.67 3.16 3.26-.1.59-1.38 2.17-1.77 2.37-.39.2-2.96-1.68-6.32-1.48zm.85 10.56c-.85-.49-3.02-5.72-2.52-5.72s.73-.75 2.53-.49c1.23.18 2.53.5 2.72.99.19.5-1.87 5.73-2.71 5.23zm31.14 24.09c-.39 2.37.5 4.05 0 4.25s-3.95 2.67-3.95 2.67 1.4-10.76 3.62-13.92c2.21-3.16 2.9-4.44 3.6-4.54 1.31-.18-2.86 9.18-3.25 11.55zm4.74-17.57c-.39.3-5.37-.45-8.19 2.57-4.34 4.64-6.31 16.49-6.22 18.56.1 2.08-1.08 5.93-.98 7.01.1 1.09-2.86 1.78-4.24 3.26-1.38 1.48-2.56 1.88-2.56 1.88s3-20.63 4.41-25.17c1.42-4.54 5.16-10.56 8.53-11.25 1.22-.25 5.53-1.08 6.81-1.08 1.28 0 2.96-.79 3.06 0 .1.79-.2 3.95-.59 4.25zm.6-10.56c-.59 0-7.01.8-9.58 1.68-2.56.89-6.02.5-8.98 3.75-2.96 3.26-5.03 7.61-6.22 17.58-1.18 9.97-1.62 15.7-1.94 17.28-.32 1.58-3.38 3.85-4.86 4.74-1.48.89-5.23 1.67-6.02 1.67-.79 0 3.75-6.02 4.54-9.57.79-3.55-.3-18.65 3.06-26.55s11.07-12.11 16.29-12.79c2.66-.34 8.69-1.23 11.35-1.13 2.67.1 2.47-.26 3.06.56.59.82-.1 2.8-.69 2.8zm17.44 1.49c.23.4-1.61-1.28-2.91.59-1.3 1.88-4.06 8-4.75 10.86-.69 2.87-1.43 7.51-1.65 8-.22.5-6.24 7.01-6.34 6.22-.1-.79 4.05-15.5 4.45-18.36.39-2.86 3.35-8.49 5.03-10.46.63-.74 5.27-1.89 6.19-1.68.92.21-.23 4.45 0 4.85zm2.4-14.31c-.59.1-1.58-.39-1.28-.89.3-.49-3.23 1.15-6.02 3.26-2.86 2.17-2.86 2.17-3.75 2.17s-4.34-3.35-14.02-4.24c-9.67-.89-17.27 3.85-18.26 3.55-.98-.29-4.04-3.16-5.03-4.24-.88-.98-1.93-4.33-2.63-5.23-.42-.2-.53-.33-.23-.2.07.03.15.1.23.2.54.26 1.59.63 2.93.69 2.37.1 1.88-.492 2.37-.89.49-.393-.3-5.23.59-8.69s1.58-6.71 1.98-6.71c.4 0 2.57 9.08 4.25 9.08 1.68 0 3.16-3.55 4.24-5.53 1.09-1.98 2.04-3.66 2.85-3.75.81-.1.41 9.37.41 10.56 0 1.18-.78 4.34-1.18 5.03-.39.69-1.68 2.17-.39 2.27 1.29.1 6.91.89 7.21-.29s-.1-11.45-.1-12.54c0-1.082-.59-7.6-.69-8.19-.1-.592.69-11.57 0-11.212-.69.358-5.262.358-5.25 1.246.02.89-3.24 4.64-3.433 5.23-.197.59-1.214 2.87-1.444 2.96-.23.09-1.29-.37-2.11-1.73-.66-1.104-1.96-2.015-2.53-2.806-.18-.24-.92-.62-1.22-.7-.75-.2-2.7-.2-2.96-.29-.26-.09-1.29-1.09-1.59-.5-.296.592-.59 2.763-2.07 8.884-1.48 6.12-3.556 13.81-4.15 13.12-.595-.682-3.46-8.68-4.15-10.36-.69-1.68-3.26-10.36-3.552-11.05-.3-.69-1.58-4.44-2.17-4.44-.59 0-3.26.18-3.65.433-.4.25-4.05 5.98-4.64 7.06-.59 1.09-3.126 5.21-3.37 6.03-.2.643-1.32.726-1.86-.59-.49-1.18-1.48-4.34-2.07-5.13-.6-.79-2.57-9.38-3.16-11.65-.59-2.27-.59-4.145-.59-4.145s1.38-.093 2.36-.29c.986-.192 0-8.98-.593-10.56-.59-1.58-.89-8.98-.59-9.18.293-.2 5.13-1.184 5.13-1.775s.494-3.85-.394-4.247c-.89-.395-3.55-.395-8.29 0-4.74.396-9.08.89-9.38 1.38-.294.49-1.58 1.777-1.084 3.16.497 1.38 1.19 2.07 1.385 3.55.19 1.48-.02.49 2.94.196s5.22-.576 5.05.59c-.125.873.593 7.9.593 8.98 0 1.09.196 5.04.196 5.04s-.69-.79-1.672-.292c-.986.49-4.34 10.86-4.54 12.93-.2 2.07-2.073 6.32-2.47 6.32-.394 0-1.182-6.42-3.453-6.42-2.27 0-3.26 2.27-3.555 3.26s-1.085 1.97-2.17 1.87c-1.087-.1-3.83-5.83-5.035-5.53-3.55.887-1.68 4.34-2.27 6.61-.59 2.27-3.26 8.295-3.553 10.565-.294 2.27-1.97 5.43-2.17 6.91-.2 1.48 3.95 2.17 4.54 2.76.595.59 1.48 1.68 2.47-2.768.988-4.44 1.48-7.8 2.27-8 .79-.195 2.667 5.036 3.75 4.84 1.09-.2 1.09-1.285 1.187-1.68.1-.39 1.28-4.736 2.27-4.736s1.68 3.453 1.68 4.242c0 .79-6.05 18.958-7.21 18.958-.69 0-4.938-5.82-9.97-8.09-5.04-2.27-6.47-4.43-10.47-4.34-4.24.1-5.92.99-10.46 2.37s-4.344 3.17-4.64 2.087c-.295-1.08-.89-10.953-.69-13.224.2-2.27 4.64-15.4 6.32-18.953 1.67-3.55 12.16-23.48 30.3-30.11 5.49-2 12.14-6.91 18.46-7.005 1.394-.02 9.48-.825 11.94-1.3 2.47-.48 4.986.08 10.44 0 7.16-.106 19.207 2.456 23 3.57 3.798 1.12 16.526 9.606 17.64 10.5 1.12.89 3.03.362 4.975 2.572.734.84 11.83 13.41 16.465 33.154 1.035 4.41 1.71 12.12 1.81 14.39.1 2.265.59 11.84 0 11.94z"/>
  <path d="M48.65 16.467c-1.382-.396-5.123.627-6.12.89-1.697.442-4.542 1.775-5.43 2.17s-1.58 2.27-2.27 4.145c-.69 1.876-1.876 4.05-1.283 5.036.592.987 5.132 3.553 5.034 4.64-.09 1.084-4.24.888-5.42.888-1.18 0-5.23-.494-6.51-.1-1.28.397-.2 1.975-.69 2.567-.49.592-1.08 3.85-1.08 4.344 0 .493 4.94 1.085 8.59.89 3.66-.2 5.14.492 8.99-1.78s3.65-5.725 3.14-7.7c-.52-1.974-3.63-2.467-4.52-4.046s.59-2.56 2.17-3.25 5.43-1.18 6.42-1.18c.99 0 .69-.39.59-1.67-.1-1.28-.19-5.43-1.58-5.82zm38.794-2.863c-.69-1.777-4.837-2.135-5.132-1.25-.297.89-.79 5.79-.89 6.185-.1.39-.395 8.19-.395 9.67 0 1.48-.395 4.24-1.974 4.24s-2.073-4.05-2.37-6.81c-.296-2.77-.986-10.17-1.42-11.95s-1.837-1.29-2.825-1.29c0 0-1.282-.3-2.082.2-.798.49.404 6.71.094 11.15-.312 4.44.112 13.91 1.988 15 1.876 1.08 5.43 2.66 9.377 1.28 3.95-1.38 5.33-4.35 5.824-7.21.49-2.87.98-3.06.88-4.35-.1-1.28-.4-13.13-1.09-14.9zm4.836.098c-.695.05-.196 7.008-.492 10.365-.26 2.933.1 15.498.493 16.532.4 1.03 1.29 1.83 7.21-.54s7.5-8.69 7.7-11.65c.2-2.96-2.07-8.2-4.73-11.45-2.66-3.26-9.06-3.34-10.17-3.26zm7.17 19.868c-.95.197-1.374-2.483-1.345-6.147.03-3.915-.175-4.837 1.344-4.74 1.12.075 3.58 3.428 3.49 4.962-.19 3.195-2.55 5.73-3.5 5.925zm13.858-15.82s-1.382-.593-1.776-.395c-.395.197-1.58 12.634-1.382 14.115.196 1.48-1.284 10.563-1.284 10.958 0 .396.494.79 3.752.987 3.257.197 3.257-.592 3.652-2.817.395-2.223-1.086-13.67-1.185-18.604-.1-4.935-.593-3.75-1.777-4.245zm18.065 20.927c0-3.256-1.877-6.812-3.26-9.502-1.38-2.69-2.14-3.354-3.453-3.627-6.137-1.27-6.417 4.442-6.12 8.688.295 4.245.46 11.93 5.034 11.845 4.572-.08 7.8-4.14 7.8-7.4zm-7.01 1.922c-.79.44-1.776-3.41-1.875-5.28-.098-1.88-.395-3.26 1.086-3.56.87-.18 2.828 1.24 2.666 5.23-.106 2.56-1.088 3.15-1.876 3.6zm-102.17 5.48c-9.18 0-8.982 7.99-9.87 12.43s0 9.47 3.652 9.97c3.652.49 7.996 1.77 10.858-3.16s2.37-15.5 1.184-16.49c-1.184-.99-4.34-2.77-5.824-2.77zm-1.086 18.46c-2.17 1.38-4.54-.5-4.145-4.64.395-4.15.89-4.25 2.566-6.12 1.678-1.88 1.947-1.59 2.863-1.48 2.16.24 2.18 1.61 2.47 5.24.3 3.64-1.58 5.61-3.75 6.99zm118.36 5.91c-.593.19-8.094 1.29-9.082.89-.986-.4 0-3.85-.098-5.33-.1-1.48 2.468-1.68 3.455-2.17.986-.5 5.132-1.48 5.798-1.78.664-.3.618-2.86 0-3.55-.62-.7-4.515 1.58-5.896 1.48-1.382-.1-3.948-.2-3.948-2.46s2.664-2.58 3.948-3.08c1.282-.5 5.33.1 5.824-.79.493-.89-1.68-6.62-2.173-6.91-.493-.3-5.518.59-7.6.59-1.31 0-3.062-.1-4.344.99-1.28 1.08-1.08 11.25-1.08 15.3 0 4.04-.2 14.31.65 14.41.85.1 12.38-.89 13.96-.99 1.58-.1 3.66-1.78 3.95-2.57.3-.79-.49-3.26-.69-4.06-.19-.8-2.07-.19-2.66 0z"/>
</svg>
